<svg width="200" height="200" viewBox="0 0 200 200" fill="none" xmlns="http://www.w3.org/2000/svg">
<g clip-path="url(#clip0_1029_536)">
<path d="M114.819 96.4804L105.946 107.71C105.94 111.564 105.713 116.606 105.037 122.708C104.361 128.81 103.228 138.205 101.411 150.764C104.962 144.731 108.028 136.728 110.751 126.913C113.473 117.097 114.762 106.941 114.819 96.4804ZM131.332 77.2658L122.06 90.0456C121.537 97.3136 120.333 105.82 118.533 115.535C116.733 125.25 113.561 139.675 109.044 158.9C109.877 160.755 110.534 161.046 111.276 159.687C117.38 147.138 122.843 129.832 125.052 121.503C128.146 110.044 130.173 95.2864 131.332 77.2658ZM147.977 58.819L138.119 72.1967C136.837 83.6681 135.009 96.8395 132.581 111.526C130.153 126.213 124.798 143.889 116.605 164.525L119.527 167.012C129.696 146.942 136.694 129.03 140.38 113.119C144.065 97.2083 146.549 79.1581 147.977 58.819ZM164.381 39.2347L153.933 53.516C151.326 80.8321 148.4 101.258 144.902 114.573C141.403 127.888 134.514 146.17 124.033 169.383L128.921 173.048C141.323 150.217 150.139 128.463 155.489 107.545C160.84 86.6264 163.833 63.8468 164.381 39.2347ZM180.31 20.6179L170.278 34.0526C170.387 46.689 167.662 67.1501 162.05 95.2511C156.437 123.352 147.643 149.052 135.551 172.288C136.259 174.691 138.168 174.063 141.191 170.434C146.853 163.809 159.033 145.714 170.404 98.0811C173.734 84.5172 176.978 58.7152 180.31 20.6179Z" fill="#44D7B6"/>
<path d="M23.8651 37.8729L22.7309 63.0828C67.7512 119.249 96.3826 152.113 108.652 161.766C120.922 171.419 129.397 175.629 134.36 174.707C128.921 173.048 121.453 167.088 112.015 156.707C102.55 146.234 73.1664 106.622 23.8651 37.8729ZM120.296 174.463C116.875 172.546 111.558 168.718 104.259 163.007C97.0457 157.268 69.5194 127.184 21.7666 72.7264L21.1146 93.1145C50.2351 122.472 71.851 142.84 85.8158 154.369C99.7534 165.806 111.265 172.566 120.296 174.463ZM22.57 102.571L25.8653 120.851C66.456 154.244 93.668 171.963 107.583 174.283C115.675 175.577 107.749 176.459 87.1631 159.908C77.3376 152.087 55.8156 133.006 22.57 102.571ZM95.8445 172.565C90.2644 170.75 82.2775 166.582 71.884 160.064C61.4904 153.545 47.0393 143.595 28.6719 130.37L33.9489 145.363C50.961 155.282 63.8237 162.104 72.4775 165.951C81.1313 169.798 88.9799 171.881 95.8445 172.565V172.565ZM82.3928 171.816C74.1476 169.356 67.6825 167.122 63.1114 165.177C58.5403 163.233 51.7754 159.982 42.9309 155.488C50.2751 161.996 56.5041 166.335 61.6454 168.599C66.7321 170.678 73.733 171.824 82.3928 171.816V171.816Z" fill="#6F61FF"/>
</g>
<defs>
<clipPath id="clip0_1029_536">
<rect width="200" height="200" fill="white" transform="translate(0 200) rotate(-90)"/>
</clipPath>
</defs>
</svg>
